<?xml version="1.0" encoding="UTF-8"?>
<!DOCTYPE svg PUBLIC "-//W3C//DTD SVG 1.1//EN" "http://www.w3.org/Graphics/SVG/1.1/DTD/svg11.dtd">
<!-- Creator: CorelDRAW X7 -->
<svg xmlns="http://www.w3.org/2000/svg" xml:space="preserve" width="52.9166mm" height="105.833mm" version="1.1" style="shape-rendering:geometricPrecision; text-rendering:geometricPrecision; image-rendering:optimizeQuality; fill-rule:evenodd; clip-rule:evenodd"
viewBox="0 0 5292 10583"
 xmlns:xlink="http://www.w3.org/1999/xlink">
 <defs>
  <style type="text/css">
   <![CDATA[
    .str1 {stroke:black;stroke-width:105.83}
    .str0 {stroke:white;stroke-width:105.83}
    .fil0 {fill:#9999FF}
    .fil1 {fill:white}
   ]]>
  </style>
 </defs>
 <g id="Слой_x0020_1">
  <metadata id="CorelCorpID_0Corel-Layer"/>
  <path class="fil0 str0" d="M4602 533l-361 5230 52 320 154 187 -103 293 77 187 309 160 232 240 180 320 77 401 -77 373 -206 294 -206 133 -206 0 -180 27 103 266 0 294 -103 400 -206 240 -129 134 -283 53 -309 0 -257 -107 -180 -186 -129 -134 -77 -107 -129 214 -232 187 -206 106 -154 0 -232 -26 -309 -80 -129 -80 -154 -187 -78 -160 -51 -267 0 -240 51 -187 -205 80c0,0 -103,-53 -129,-27 -26,27 -232,-80 -232,-80l-129 -133 -180 -213 -154 -241 -52 -266 52 -267 103 -214 128 -213 181 -133 180 -187 154 -134 52 -106 51 -374 26 -187 -26 -453 -77 -667 -77 -400 26 -561 -78 -854 -51 -773c0,0 0,-480 -26,-534 -26,-53 -77,-293 -77,-293l-52 -641 -103 -400 4146 -27z"/>
  <path class="fil1 str1" d="M4536 8170c26,-26 180,-133 180,-133l52 -240c0,0 -26,-160 -52,-187 -25,-27 -154,-160 -154,-160l-232 27 -154 106c0,0 -78,187 -78,214 0,26 -25,213 0,213 26,0 129,160 129,160l309 0z"/>
  <polygon class="fil1 str1" points="3661,9584 3789,9504 3867,9371 3867,9237 3789,9104 3661,8971 3506,8944 3377,9051 3274,9157 3223,9371 3352,9558 "/>
  <path class="fil1 str1" d="M2013 9398l103 -161 51 -160 -25 -186c0,0 -129,-54 -129,-80 0,-27 -129,-54 -155,-54 -25,0 -128,80 -128,80l-103 107 -52 160 26 213 129 134 180 0 103 -53z"/>
  <path class="fil1 str1" d="M829 8277c25,0 180,-107 180,-107l77 -187 0 -213 -129 -160c0,0 -128,0 -154,0 -26,0 -180,80 -180,80l-129 240 51 214 78 133 206 0z"/>
  <path class="fil1 str1" d="M1755 7850l155 294 154 213 181 107 180 80 206 0 257 -107 206 -160 180 -187 129 -213 77 -214 52 -213 0 -214 -52 -160 -103 -160 -154 -53 -180 0 -206 80 -155 80 -154 27c0,0 -155,0 -180,0 -26,0 -181,-54 -206,-54 -26,0 -206,-26 -206,-26l-155 0 -129 133 -77 160 26 240 51 214 103 133z"/>
 </g>
</svg>
