<?xml version="1.0" encoding="UTF-8"?>
<!DOCTYPE svg PUBLIC "-//W3C//DTD SVG 1.1//EN" "http://www.w3.org/Graphics/SVG/1.1/DTD/svg11.dtd">
<!-- Creator: CorelDRAW X7 -->
<svg xmlns="http://www.w3.org/2000/svg" xml:space="preserve" width="52.9166mm" height="27.7812mm" version="1.1" style="shape-rendering:geometricPrecision; text-rendering:geometricPrecision; image-rendering:optimizeQuality; fill-rule:evenodd; clip-rule:evenodd"
viewBox="0 0 5292 2778"
 xmlns:xlink="http://www.w3.org/1999/xlink">
 <defs>
  <style type="text/css">
   <![CDATA[
    .str1 {stroke:black;stroke-width:105.83}
    .str0 {stroke:white;stroke-width:105.83}
    .fil0 {fill:black}
    .fil1 {fill:#C169FF}
   ]]>
  </style>
 </defs>
 <g id="Слой_x0020_1">
  <metadata id="CorelCorpID_0Corel-Layer"/>
  <path class="fil0 str0" d="M873 1477c-25,27 -180,133 -180,133l-51 241c0,0 25,160 51,186 26,27 155,160 155,160l231 -26 155 -107c0,0 77,-187 77,-213 0,-27 26,-214 0,-214 -26,0 -129,-160 -129,-160l-309 0z"/>
  <polygon class="fil0 str0" points="1749,63 1620,143 1543,276 1543,410 1620,543 1749,677 1903,703 2032,597 2135,490 2186,276 2058,90 "/>
  <path class="fil0 str0" d="M3396 250l-102 160 -52 160 26 187c0,0 128,53 128,80 0,26 129,53 155,53 26,0 129,-80 129,-80l103 -107 51 -160 -26 -213 -128 -134 -181 0 -103 54z"/>
  <path class="fil0 str0" d="M4581 1370c-26,0 -180,107 -180,107l-78 187 0 213 129 160c0,0 129,0 155,0 25,0 180,-80 180,-80l129 -240 -52 -213 -77 -134 -206 0z"/>
  <path class="fil0 str0" d="M3649 1699l-154 -294 -155 -213 -180 -107 -180 -80 -206 0 -258 107 -206 160 -180 187 -128 213 -78 213 -51 214 0 213 51 160 103 161 155 53 180 0 206 -80 154 -80 155 -27c0,0 154,0 180,0 26,0 180,54 206,54 26,0 206,26 206,26l155 0 128 -133 78 -160 -26 -240 -52 -214 -103 -133z"/>
  <path class="fil1 str1" d="M858 4243c-26,27 -181,133 -181,133l-51 240c0,0 26,161 51,187 26,27 155,160 155,160l232 -26 154 -107c0,0 77,-187 77,-214 0,-26 26,-213 0,-213 -25,0 -128,-160 -128,-160l-309 0z"/>
  <polygon class="fil1 str1" points="1733,2829 1604,2909 1527,3042 1527,3176 1604,3309 1733,3442 1887,3469 2016,3362 2119,3256 2171,3042 2042,2856 "/>
  <path class="fil1 str1" d="M3381 3016l-103 160 -52 160 26 187c0,0 129,53 129,80 0,26 129,53 154,53 26,0 129,-80 129,-80l103 -107 51 -160 -25 -213 -129 -134 -180 0 -103 54z"/>
  <path class="fil1 str1" d="M4565 4136c-26,0 -180,107 -180,107l-77 187 0 213 128 160c0,0 129,0 155,0 26,0 180,-80 180,-80l129 -240 -52 -213 -77 -134 -206 0z"/>
  <path class="fil1 str1" d="M3634 4465l-155 -294 -154 -213 -181 -107 -180 -80 -206 0 -257 107 -206 160 -180 187 -129 213 -77 213 -52 214 0 213 52 160 103 160 154 54 180 0 206 -80 155 -80 154 -27c0,0 155,0 180,0 26,0 181,53 206,53 26,0 206,27 206,27l155 0 129 -133 77 -160 -26 -240 -51 -214 -103 -133z"/>
 </g>
</svg>
