<?xml version="1.0" encoding="UTF-8"?>
<!DOCTYPE svg PUBLIC "-//W3C//DTD SVG 1.1//EN" "http://www.w3.org/Graphics/SVG/1.1/DTD/svg11.dtd">
<!-- Creator: CorelDRAW X7 -->
<svg xmlns="http://www.w3.org/2000/svg" xml:space="preserve" width="52.9166mm" height="105.833mm" version="1.1" style="shape-rendering:geometricPrecision; text-rendering:geometricPrecision; image-rendering:optimizeQuality; fill-rule:evenodd; clip-rule:evenodd"
viewBox="0 0 5292 10583"
 xmlns:xlink="http://www.w3.org/1999/xlink">
 <defs>
  <style type="text/css">
   <![CDATA[
    .str0 {stroke:white;stroke-width:105.83}
    .fil0 {fill:black}
    .fil1 {fill:#9999FF}
   ]]>
  </style>
 </defs>
 <g id="Слой_x0020_1">
  <metadata id="CorelCorpID_0Corel-Layer"/>
  <path class="fil0 str0" d="M688 10085l361 -5229 -52 -321 -154 -186 103 -294 -78 -187 -309 -160 -231 -240 -181 -320 -77 -400 77 -374 206 -293 206 -134 206 0 181 -26 -103 -267 0 -293 103 -401 206 -240 128 -133 283 -54 309 0 258 107 180 187 129 133 77 107 129 -213 232 -187 206 -107 154 0 232 27 309 80 128 80 155 187 77 160 52 267 0 240 -52 186 206 -80c0,0 103,54 129,27 26,-27 232,80 232,80l128 133 181 214 154 240 51 267 -51 267 -103 213 -129 214 -180 133 -180 187 -155 133 -51 107 -52 373 -25 187 25 454 78 667 77 400 -26 560 77 854 52 774c0,0 0,480 26,533 25,54 77,294 77,294l51 640 103 400 -4145 27z"/>
  <path class="fil1 str0" d="M754 2448c-26,27 -181,134 -181,134l-51 240c0,0 26,160 51,187 26,26 155,160 155,160l232 -27 154 -107c0,0 77,-187 77,-213 0,-27 26,-214 0,-214 -25,0 -128,-160 -128,-160l-309 0z"/>
  <polygon class="fil1 str0" points="1629,1034 1500,1114 1423,1248 1423,1381 1500,1514 1629,1648 1783,1675 1912,1568 2015,1461 2067,1248 1938,1061 "/>
  <path class="fil1 str0" d="M3277 1221l-103 160 -52 160 26 187c0,0 129,53 129,80 0,27 128,53 154,53 26,0 129,-80 129,-80l103 -106 51 -161 -25 -213 -129 -133 -180 0 -103 53z"/>
  <path class="fil1 str0" d="M4461 2342c-26,0 -180,106 -180,106l-77 187 0 213 128 161c0,0 129,0 155,0 26,0 180,-80 180,-80l129 -241 -52 -213 -77 -133 -206 0z"/>
  <path class="fil1 str0" d="M3534 2768l-154 -293 -155 -213 -180 -107 -180 -80 -206 0 -258 106 -206 161 -180 186 -129 214 -77 213 -51 214 0 213 51 160 103 160 155 54 180 0 206 -80 154 -80 155 -27c0,0 154,0 180,0 26,0 180,53 206,53 26,0 206,27 206,27l154 0 129 -134 77 -160 -25 -240 -52 -213 -103 -134z"/>
 </g>
</svg>
